<svg width="18" height="18" viewBox="0 0 18 18" fill="none" xmlns="http://www.w3.org/2000/svg">
<rect width="18" height="18" rx="9" fill="white"/>
<path d="M8.85227 13.1193C8.28977 13.1193 7.78835 13.0227 7.34801 12.8295C6.91051 12.6364 6.5625 12.3679 6.30398 12.0241C6.0483 11.6776 5.90909 11.2756 5.88636 10.8182H6.96023C6.98295 11.0994 7.07955 11.3423 7.25 11.5469C7.42045 11.7486 7.64347 11.9048 7.91903 12.0156C8.1946 12.1264 8.5 12.1818 8.83523 12.1818C9.21023 12.1818 9.54261 12.1165 9.83239 11.9858C10.1222 11.8551 10.3494 11.6733 10.5142 11.4403C10.679 11.2074 10.7614 10.9375 10.7614 10.6307C10.7614 10.3097 10.6818 10.027 10.5227 9.78267C10.3636 9.53551 10.1307 9.34233 9.82386 9.20312C9.51705 9.06392 9.14205 8.99432 8.69886 8.99432H8V8.05682H8.69886C9.04545 8.05682 9.34943 7.99432 9.6108 7.86932C9.875 7.74432 10.081 7.56818 10.2287 7.34091C10.3793 7.11364 10.4545 6.84659 10.4545 6.53977C10.4545 6.24432 10.3892 5.98722 10.2585 5.76847C10.1278 5.54972 9.94318 5.37926 9.70455 5.2571C9.46875 5.13494 9.19034 5.07386 8.86932 5.07386C8.56818 5.07386 8.28409 5.12926 8.01705 5.24006C7.75284 5.34801 7.53693 5.50568 7.36932 5.71307C7.2017 5.91761 7.1108 6.16477 7.09659 6.45455H6.07386C6.09091 5.99716 6.22869 5.59659 6.48722 5.25284C6.74574 4.90625 7.08381 4.63636 7.50142 4.44318C7.92188 4.25 8.38352 4.15341 8.88636 4.15341C9.42614 4.15341 9.8892 4.26278 10.2756 4.48153C10.6619 4.69744 10.9588 4.98295 11.1662 5.33807C11.3736 5.69318 11.4773 6.0767 11.4773 6.48864C11.4773 6.98011 11.348 7.39915 11.0895 7.74574C10.8338 8.09233 10.4858 8.33239 10.0455 8.46591V8.53409C10.5966 8.625 11.027 8.85937 11.3366 9.23722C11.6463 9.61222 11.8011 10.0767 11.8011 10.6307C11.8011 11.1051 11.6719 11.5312 11.4134 11.9091C11.1577 12.2841 10.8082 12.5795 10.3651 12.7955C9.92188 13.0114 9.41761 13.1193 8.85227 13.1193Z" fill="#1A1A1A"/>
</svg>
